<?xml version="1.0" encoding="UTF-8"?>
<svg width="153px" height="142px" viewBox="0 0 153 142" version="1.1" xmlns="http://www.w3.org/2000/svg" xmlns:xlink="http://www.w3.org/1999/xlink">
    <!-- Generator: Sketch 55.2 (78181) - https://sketchapp.com -->
    <title>Cafe_mi</title>
    <desc>Created with Sketch.</desc>
    <g id="Startseite" stroke="none" stroke-width="1" fill="none" fill-rule="evenodd">
        <g id="Icons" transform="translate(-558.000000, -922.000000)" stroke="#FFFFFF">
            <g id="Cafe_mi" transform="translate(561.000000, 924.000000)">
                <path d="M-2.62900812e-13,79 L121.995483,79 C121.71061,110.526153 94.5101228,136 60.9977417,136 C27.4853607,136 0.284873098,110.526153 -2.74462311e-13,79 Z" id="Combined-Shape" stroke-width="5"></path>
                <path d="M2,136.019231 L122,136.019231" id="Line-3" stroke-width="6" stroke-linecap="square"></path>
                <ellipse id="Oval" stroke-width="5" cx="134.5" cy="79.5" rx="12.5" ry="24.5"></ellipse>
                <path d="M50.9702162,12 C40.8088137,18.5301601 33.9833676,26.888005 42.6819878,38.3371247 C48.041781,45.3916819 53.5904381,45.1597965 51.2576692,54.8321923 C50.6992492,57.1475782 48.863217,58.962471 47.3483083,60.7865883 C44.0966351,64.7019619 40.4494361,68.2621961 37,72" id="Path-2" stroke-width="3"></path>
                <path d="M89.9702162,12 C79.8088137,18.5301601 72.9833676,26.888005 81.6819878,38.3371247 C87.041781,45.3916819 92.5904381,45.1597965 90.2576692,54.8321923 C89.6992492,57.1475782 87.863217,58.962471 86.3483083,60.7865883 C83.0966351,64.7019619 79.4494361,68.2621961 76,72" id="Path-2" stroke-width="3"></path>
                <path d="M70.9702162,0 C60.8088137,6.53016007 53.9833676,14.888005 62.6819878,26.3371247 C68.041781,33.3916819 73.5904381,33.1597965 71.2576692,42.8321923 C70.6992492,45.1475782 68.863217,46.962471 67.3483083,48.7865883 C64.0966351,52.7019619 60.4494361,56.2621961 57,60" id="Path-2" stroke-width="3"></path>
                <path d="M70.9702162,11 C60.8088137,17.5301601 53.9833676,25.888005 62.6819878,37.3371247 C68.041781,44.3916819 73.5904381,44.1597965 71.2576692,53.8321923 C70.6992492,56.1475782 68.863217,57.962471 67.3483083,59.7865883 C64.0966351,63.7019619 60.4494361,67.2621961 57,71" id="Path-2" stroke-width="3"></path>
            </g>
        </g>
    </g>
</svg>