<?xml version="1.0" encoding="UTF-8"?>
<svg width="231px" height="225px" viewBox="0 0 231 225" version="1.1" xmlns="http://www.w3.org/2000/svg" xmlns:xlink="http://www.w3.org/1999/xlink">
    <!-- Generator: Sketch 55.2 (78181) - https://sketchapp.com -->
    <title>Cafe</title>
    <desc>Created with Sketch.</desc>
    <g id="Startseite" stroke="none" stroke-width="1" fill="none" fill-rule="evenodd">
        <g id="Icons" transform="translate(-132.000000, -858.000000)" stroke="#FFFFFF">
            <g id="Cafe" transform="translate(135.000000, 860.000000)">
                <path d="M-3.12638804e-13,128.153846 L181.730769,128.153846 C181.730769,177.996028 141.048951,218.401099 90.8653846,218.401099 C40.6818184,218.401099 -3.12638804e-13,177.996028 -3.12638804e-13,128.153846 Z" id="Combined-Shape" stroke-width="5"></path>
                <path d="M-3.12638804e-13,219.019231 L181.355292,219.019231" id="Line-3" stroke-width="6" stroke-linecap="square"></path>
                <ellipse id="Oval" stroke-width="5" cx="203.365385" cy="145.461538" rx="21.6346154" ry="34.6153846"></ellipse>
                <path d="M82.7412084,7 C66.6197525,17.3603501 55.7909198,30.6203926 69.5916153,48.7848613 C78.0951333,59.9771876 86.8982912,59.6092925 83.1972637,74.9549205 C82.3113088,78.6283692 79.3983732,81.5077665 76.9949122,84.4017988 C71.8360075,90.6136895 66.0495861,96.2621381 60.5769231,102.192308" id="Path-2" stroke-width="3"></path>
                <path d="M106.230219,-3.55271368e-14 C90.1087635,10.3603501 79.2799308,23.6203926 93.0806263,41.7848613 C101.584144,52.9771876 110.387302,52.6092925 106.686275,67.9549205 C105.80032,71.6283692 102.887384,74.5077665 100.483923,77.4017988 C95.3250185,83.6136895 89.5385971,89.2621381 84.0659341,95.1923077" id="Path-2" stroke-width="3"></path>
                <path d="M106.230219,18.543956 C90.1087635,28.9043061 79.2799308,42.1643487 93.0806263,60.3288173 C101.584144,71.5211436 110.387302,71.1532486 106.686275,86.4988766 C105.80032,90.1723253 102.887384,93.0517225 100.483923,95.9457548 C95.3250185,102.157646 89.5385971,107.806094 84.0659341,113.736264" id="Path-2" stroke-width="3"></path>
                <path d="M130.955494,7 C114.834038,17.3603501 104.005205,30.6203926 117.805901,48.7848613 C126.309419,59.9771876 135.112577,59.6092925 131.411549,74.9549205 C130.525594,78.6283692 127.612659,81.5077665 125.209198,84.4017988 C120.050293,90.6136895 114.263872,96.2621381 108.791209,102.192308" id="Path-2" stroke-width="3"></path>
            </g>
        </g>
    </g>
</svg>