<?xml version="1.0" encoding="UTF-8"?>
<svg width="154px" height="119px" viewBox="0 0 154 119" version="1.1" xmlns="http://www.w3.org/2000/svg" xmlns:xlink="http://www.w3.org/1999/xlink">
    <!-- Generator: Sketch 55.2 (78181) - https://sketchapp.com -->
    <title>Zimmer_mi</title>
    <desc>Created with Sketch.</desc>
    <g id="Startseite" stroke="none" stroke-width="1" fill="none" fill-rule="evenodd">
        <g id="Icons" transform="translate(-557.000000, -152.000000)" stroke="#FFFFFF">
            <g id="Zimmer_mi" transform="translate(561.000000, 143.000000)">
                <rect id="Rectangle" stroke-width="5" x="21.5" y="66.2356902" width="105" height="59.2393655"></rect>
                <path d="M0,82.5505059 L79.5350749,14" id="Line" stroke-width="5" stroke-linecap="square"></path>
                <path d="M64.8574592,80.1894805 L147.102896,14.9155342" id="Line" stroke-width="5" stroke-linecap="square" transform="translate(105.980178, 47.552507) rotate(-101.000000) translate(-105.980178, -47.552507) "></path>
                <path d="M56,110.73569 C57.12888,105.682368 66.7218725,101.73569 78.3889057,101.73569 C90.0559389,101.73569 99.6489314,105.682368 100.777811,110.73569 L56,110.73569 Z" id="Combined-Shape" stroke-width="3"></path>
                <path d="M61,115.99254 L61,124.465142" id="Line-2" stroke-width="3" stroke-linecap="square"></path>
                <path d="M113.219178,96.2356902 L113.219178,124.465142" id="Line-2" stroke-width="3" stroke-linecap="square"></path>
                <path d="M55,113.549046 L112.705479,113.549046" id="Line-2" stroke-width="3" stroke-linecap="square"></path>
                <path d="M111,101.761047 L111,110.73569 L104.003792,110.73569 C104.001271,110.636106 104,110.536097 104,110.43569 C104,105.630813 106.910149,101.73569 110.5,101.73569 C110.668236,101.73569 110.834979,101.744245 111,101.761047 Z" id="Combined-Shape" stroke-width="3"></path>
            </g>
        </g>
    </g>
</svg>